<svg width="12" height="12" viewBox="0 0 12 12" fill="none" xmlns="http://www.w3.org/2000/svg">
<mask id="path-1-inside-1_1_1028" fill="white">
<path d="M0 7.6712L2.74 10.4112C4.8584 12.5296 8.2928 12.5296 10.4112 10.4112C12.5296 8.2928 12.5296 4.8584 10.4112 2.74L7.6712 0"/>
</mask>
<path d="M1.41421 6.25699C0.633165 5.47594 -0.633165 5.47594 -1.41421 6.25699C-2.19526 7.03804 -2.19526 8.30437 -1.41421 9.08541L1.41421 6.25699ZM9.08541 -1.41421C8.30437 -2.19526 7.03804 -2.19526 6.25699 -1.41421C5.47594 -0.633165 5.47594 0.633165 6.25699 1.41421L9.08541 -1.41421ZM-1.41421 9.08541L1.32579 11.8254L4.15421 8.99699L1.41421 6.25699L-1.41421 9.08541ZM1.32579 11.8254C4.22523 14.7249 8.92597 14.7249 11.8254 11.8254L8.99699 8.99699C7.65964 10.3343 5.49156 10.3343 4.15421 8.99699L1.32579 11.8254ZM11.8254 11.8254C14.7249 8.92597 14.7249 4.22523 11.8254 1.32579L8.99699 4.15421C10.3343 5.49156 10.3343 7.65964 8.99699 8.99699L11.8254 11.8254ZM11.8254 1.32579L9.08541 -1.41421L6.25699 1.41421L8.99699 4.15421L11.8254 1.32579Z" fill="#009688" mask="url(#path-1-inside-1_1_1028)"/>
</svg>
