<svg width="12" height="12" viewBox="0 0 12 12" fill="none" xmlns="http://www.w3.org/2000/svg">
<mask id="path-1-inside-1_1_1029" fill="white">
<path d="M12 4.3288L9.26 1.5888C7.1416 -0.5296 3.7072 -0.5296 1.5888 1.5888C-0.5296 3.7072 -0.5296 7.1416 1.5888 9.26L4.3288 12"/>
</mask>
<path d="M10.5858 5.74301C11.3668 6.52406 12.6332 6.52406 13.4142 5.74301C14.1953 4.96196 14.1953 3.69563 13.4142 2.91459L10.5858 5.74301ZM9.26 1.5888L7.84579 3.00301V3.00301L9.26 1.5888ZM1.5888 9.26L3.00301 7.84579L1.5888 9.26ZM2.91459 13.4142C3.69563 14.1953 4.96196 14.1953 5.74301 13.4142C6.52406 12.6332 6.52406 11.3668 5.74301 10.5858L2.91459 13.4142ZM13.4142 2.91459L10.6742 0.174586L7.84579 3.00301L10.5858 5.74301L13.4142 2.91459ZM10.6742 0.174587C7.77477 -2.72486 3.07404 -2.72486 0.174587 0.174587L3.00301 3.00301C4.34036 1.66566 6.50843 1.66566 7.84579 3.00301L10.6742 0.174587ZM0.174587 0.174587C-2.72486 3.07404 -2.72486 7.77477 0.174587 10.6742L3.00301 7.84579C1.66566 6.50843 1.66566 4.34036 3.00301 3.00301L0.174587 0.174587ZM0.174586 10.6742L2.91459 13.4142L5.74301 10.5858L3.00301 7.84579L0.174586 10.6742Z" fill="#009688" mask="url(#path-1-inside-1_1_1029)"/>
</svg>
